<svg xmlns="http://www.w3.org/2000/svg" width="640" height="480" viewBox="0 0 640 480">
  <defs>
    <linearGradient id="bg" x1="0" y1="0" x2="1" y2="1"><stop stop-color="#f59f00"/><stop offset="1" stop-color="#ef476f"/></linearGradient>
    <filter id="shadow" x="-30%" y="-30%" width="160%" height="160%"><feGaussianBlur in="SourceAlpha" stdDeviation="10"/><feOffset dy="12"/><feComponentTransfer><feFuncA type="linear" slope=".25"/></feComponentTransfer><feMerge><feMergeNode/><feMergeNode in="SourceGraphic"/></feMerge></filter>
  </defs>
  <rect width="640" height="480" fill="url(#bg)"/>
  <circle cx="103" cy="91" r="52" fill="#ffe08a" opacity=".5"/><circle cx="560" cy="386" r="80" fill="#10d9c4" opacity=".34"/>
  <g filter="url(#shadow)"><circle cx="320" cy="176" r="72" fill="#f5c49c"/><path d="M212 430c6-124 77-187 108-187s102 63 108 187" fill="#173f86"/><path d="M269 248c11 32 29 48 51 48s40-16 51-48" fill="#f5c49c"/><path d="M245 159c8-89 147-113 155 11-39-34-111-37-155-11z" fill="#1a2035"/><circle cx="292" cy="177" r="7" fill="#17223a"/><circle cx="349" cy="177" r="7" fill="#17223a"/><path d="M292 211q28 20 56 0" fill="none" stroke="#c66966" stroke-width="6" stroke-linecap="round"/></g>
  <text x="30" y="450" fill="#fff" font-family="Arial" font-size="22" opacity=".8">Arsenal ATL Test Portrait</text>
</svg>
